<svg width="12" height="22" viewBox="0 0 12 22" fill="none" xmlns="http://www.w3.org/2000/svg">
<path d="M11.515 18.4582C11.7966 18.7582 11.9531 19.1529 11.9374 19.5635C11.9374 19.974 11.781 20.3529 11.4837 20.6529C11.2021 20.9372 10.811 21.1108 10.4042 21.1108C9.99739 21.1108 9.60626 20.9687 9.309 20.6845L0.453716 11.7477C0.312907 11.6056 0.20339 11.4319 0.125163 11.2424C0.0469361 11.0529 0 10.8477 0 10.6424C0 10.4372 0.0469361 10.2319 0.125163 10.0266C0.20339 9.83716 0.312907 9.66347 0.453716 9.52137L9.309 0.584524C9.4498 0.442419 9.6219 0.316103 9.80965 0.237156C10.013 0.158208 10.2164 0.11084 10.4198 0.11084C10.6232 0.11084 10.8422 0.142419 11.03 0.221366C11.2177 0.300314 11.3898 0.426629 11.5463 0.568735C11.6871 0.71084 11.7966 0.900313 11.8748 1.08979C11.9687 1.27926 12 1.48452 12 1.70558C12 1.91084 11.9531 2.1161 11.8748 2.30558C11.7966 2.49505 11.6714 2.66873 11.515 2.82663L3.77053 10.6424L5.2412 12.1108L11.515 18.4582Z" fill="#A0A0A0"/>
</svg>
