<svg width="13" height="22" viewBox="0 0 13 22" fill="none" xmlns="http://www.w3.org/2000/svg">
<path d="M0.525423 19.2211C0.220339 19.5353 0.0508471 19.9489 0.0677958 20.3789C0.0677958 20.809 0.237288 21.206 0.559321 21.5203C0.864407 21.818 1.28814 22 1.72881 22C2.16949 22 2.59322 21.8511 2.91525 21.5534L12.5085 12.191C12.661 12.0421 12.7797 11.8602 12.8644 11.6617C12.9492 11.4632 13 11.2481 13 11.0331C13 10.818 12.9492 10.603 12.8644 10.388C12.7797 10.1895 12.661 10.0075 12.5085 9.85865L2.91525 0.496241C2.76271 0.347368 2.57627 0.215038 2.37288 0.132331C2.15254 0.0496241 1.9322 0 1.71186 0C1.49153 0 1.25424 0.0330827 1.05085 0.115789C0.847457 0.198496 0.661016 0.330827 0.491525 0.479699C0.338983 0.628571 0.220339 0.827068 0.135592 1.02556C0.0338974 1.22406 0 1.4391 0 1.67068C0 1.88571 0.0508471 2.10075 0.135592 2.29925C0.220339 2.49774 0.355931 2.6797 0.525423 2.84511L8.91525 11.0331L7.32203 12.5714L0.525423 19.2211Z" fill="#A0A0A0"/>
</svg>
